<?xml version="1.0" encoding="utf-8"?>
<!-- Generated by IcoMoon.io -->
<!DOCTYPE svg PUBLIC "-//W3C//DTD SVG 1.1//EN" "http://www.w3.org/Graphics/SVG/1.1/DTD/svg11.dtd">
<svg version="1.1" xmlns="http://www.w3.org/2000/svg" xmlns:xlink="http://www.w3.org/1999/xlink" width="40" height="40" viewBox="0 0 40 40">
<path fill="#fff" d="M37.143 33.571v-17.143q-0.714 0.804-1.54 1.473-5.982 4.598-9.509 7.545-1.138 0.96-1.853 1.496t-1.931 1.083-2.288 0.547h-0.045q-1.071 0-2.288-0.547t-1.931-1.083-1.853-1.496q-3.527-2.946-9.509-7.545-0.826-0.67-1.54-1.473v17.143q0 0.29 0.212 0.502t0.502 0.212h32.857q0.29 0 0.502-0.212t0.212-0.502zM37.143 10.112v-0.547t-0.011-0.29-0.067-0.279-0.123-0.201-0.201-0.167-0.313-0.056h-32.857q-0.29 0-0.502 0.212t-0.212 0.502q0 3.75 3.281 6.339 4.308 3.393 8.951 7.076 0.134 0.112 0.781 0.658t1.027 0.837 0.993 0.703 1.127 0.614 0.96 0.201h0.045q0.446 0 0.96-0.201t1.127-0.614 0.993-0.703 1.027-0.837 0.781-0.658q4.643-3.683 8.951-7.076 1.205-0.96 2.243-2.578t1.038-2.935zM40 9.286v24.286q0 1.473-1.049 2.522t-2.522 1.049h-32.857q-1.473 0-2.522-1.049t-1.049-2.522v-24.286q0-1.473 1.049-2.522t2.522-1.049h32.857q1.473 0 2.522 1.049t1.049 2.522z"></path>
</svg>
