<?xml version="1.0" encoding="utf-8"?>
<!-- Generated by IcoMoon.io -->
<!DOCTYPE svg PUBLIC "-//W3C//DTD SVG 1.1//EN" "http://www.w3.org/Graphics/SVG/1.1/DTD/svg11.dtd">
<svg version="1.1" xmlns="http://www.w3.org/2000/svg" xmlns:xlink="http://www.w3.org/1999/xlink" width="130" height="130" viewBox="0 0 130 130">
<path fill="#fff" d="M48.75 48.75h22.484v11.525h0.321c3.128-5.611 10.786-11.525 22.197-11.525 23.733 0 28.123 14.774 28.123 33.99v39.135h-23.437v-34.693c0-8.275-0.169-18.919-12.191-18.919-12.206 0-14.069 9.012-14.069 18.318v35.294h-23.428v-73.125z"></path>
<path fill="#fff" d="M8.125 48.75h24.375v73.125h-24.375v-73.125z"></path>
<path fill="#fff" d="M32.5 28.438c0 6.731-5.457 12.188-12.188 12.188s-12.188-5.457-12.188-12.188c0-6.731 5.457-12.188 12.188-12.188s12.188 5.457 12.188 12.188z"></path>
</svg>
