<?xml version="1.0" encoding="utf-8"?>
<!-- Generator: Adobe Illustrator 19.2.1, SVG Export Plug-In . SVG Version: 6.00 Build 0)  -->
<svg version="1.1" id="Layer_1" xmlns="http://www.w3.org/2000/svg" xmlns:xlink="http://www.w3.org/1999/xlink" x="0px" y="0px"
	 viewBox="0 0 1604.6 344.5" style="enable-background:new 0 0 1604.6 344.5;" xml:space="preserve">
<style type="text/css">
	.st0{fill:#FFFFFF;}
</style>
<path class="st0" d="M133.2,130.2c-19.5,0-30.1,7.9-30.1,21.3c0,17.1,20.4,19.5,54.2,29.2c36.6,10.7,60.6,18.1,71.3,25.9
	c18.1,13.4,25.9,30.1,25.9,52.8c0,52.3-42.1,85.1-118,85.1c-74,0-117.1-31-121.3-82.9h80.6c1.8,21.8,16.2,32.4,43.1,32.4
	c22.7,0,36.6-9.3,36.6-24.1c0-19.9-26.8-19-70.8-33.3c-55.1-18.1-80.1-35.2-80.1-74.5c0-49,39.3-80.1,106.9-80.1
	c71.3,0,110.2,24.5,114.8,72.6H169C165.6,138.1,154.1,130.2,133.2,130.2L133.2,130.2z M279.9,336.6V90.8H360v245.8H279.9
	L279.9,336.6z M279.9,3.9H360v64.8h-80.1V3.9L279.9,3.9z M486.4,139.5v106.4c0,29.6,4.6,40.3,30.1,40.3c2.8,0,6.5,0,10.2-0.5V337
	c-16.2,3.2-32.4,5.1-48.1,5.1c-63.9,0-72.6-31-72.6-107.4v-95.3h-33V90.8h32.9V21.4h80.6v69.4h41.2v48.6h-41.3V139.5z M700.2,343.6
	c-31.5,0-54.6-12.5-72.6-39.3v32.9H547V3.9h80.1v118c16.2-25,41.7-38.4,74-38.4c58.3,0,102.8,51.8,102.8,131.4
	C803.9,292.7,760.8,343.6,700.2,343.6L700.2,343.6z M674.3,146.4c-30.1,0-48.1,23.2-48.1,64.8c0,44.9,16.2,68.1,46.7,68.1
	c30.6,0,47.7-23.6,47.7-68.1C720.6,170.5,702.5,146.4,674.3,146.4L674.3,146.4z M973.7,336.6c-1.9-7.9-3.2-16.2-4.1-25.5
	c-22.7,22.7-47.7,33.4-78.2,33.4c-48.1,0-76.8-28.7-76.8-72.2c0-41.2,21.8-66.2,65.3-76.4c56.9-13.4,87.5-9.7,87.5-28.7v-6
	c0-14.3-11.1-21.8-32-21.8c-23.1,0-36.6,9.8-39.8,27.8h-74c7.9-56,45.9-82.4,115.7-82.4c43.1,0,73.1,10.2,90.3,32
	c15.3,19.9,16.2,44.9,16.2,78.7v93c0,21.8,3.7,34.7,12,38.9v9.3L973.7,336.6L973.7,336.6z M967.3,220.9c-13.9,8.8-32,9.8-50,14.8
	c-18.1,5.1-26.4,12.5-26.4,27.3c0,17.1,11.5,29.2,29.6,29.2c27.3,0,46.7-17.1,46.7-43.1L967.3,220.9L967.3,220.9z M1226,177.9
	c-4.6-22.7-16.7-34.3-35.6-34.3c-27.8,0-42.6,24.1-42.6,70.4c0,44.9,13.4,67.1,41.7,67.1c20.8,0,33.3-11.6,37.9-35.6h79.2
	c-7.9,62.5-52.3,99.1-119.9,99.1c-73.6,0-121.7-51.4-121.7-128.2c0-83.8,49-134.2,125.9-134.2c67.6,0,111.1,36.1,116.2,95.8
	L1226,177.9L1226,177.9z M1577.7,336.6h-89.3l-51.8-97.2l-29.6,31v66.2h-79.2V3.9h79.2v171.7l74-84.7h94.4l-85.1,94L1577.7,336.6
	L1577.7,336.6z"/>
</svg>
