<?xml version="1.0" encoding="utf-8"?>
<!-- Generated by IcoMoon.io -->
<!DOCTYPE svg PUBLIC "-//W3C//DTD SVG 1.1//EN" "http://www.w3.org/Graphics/SVG/1.1/DTD/svg11.dtd">
<svg version="1.1" xmlns="http://www.w3.org/2000/svg" xmlns:xlink="http://www.w3.org/1999/xlink" width="130" height="130" viewBox="0 0 130 130">
<path fill="#fff" d="M130 24.682c-4.783 2.121-9.923 3.555-15.318 4.2 5.506-3.301 9.736-8.527 11.727-14.756-5.154 3.057-10.862 5.276-16.937 6.472-4.865-5.183-11.797-8.422-19.468-8.422-14.729 0-26.671 11.941-26.671 26.67 0 2.090 0.236 4.126 0.691 6.078-22.166-1.113-41.819-11.73-54.973-27.867-2.296 3.939-3.611 8.521-3.611 13.409 0 9.253 4.708 17.417 11.865 22.2-4.372-0.139-8.485-1.338-12.080-3.336-0.003 0.111-0.003 0.223-0.003 0.335 0 12.922 9.194 23.702 21.394 26.152-2.238 0.609-4.594 0.936-7.027 0.936-1.719 0-3.389-0.168-5.018-0.479 3.394 10.596 13.244 18.307 24.915 18.522-9.128 7.154-20.628 11.417-33.124 11.417-2.153 0-4.276-0.126-6.362-0.373 11.803 7.568 25.823 11.984 40.884 11.984 49.057 0 75.884-40.641 75.884-75.885 0-1.156-0.026-2.306-0.077-3.451 5.212-3.76 9.734-8.458 13.309-13.806z"></path>
</svg>
